<svg xmlns="http://www.w3.org/2000/svg" width="6.3in" height="1.15in" viewBox="0 0 630 115">
  <line x1="25" y1="78" x2="605" y2="78" stroke="#000000" stroke-width="1.8"/>
  <polygon points="25,78 40,70 40,86" fill="#000000"/><polygon points="605,78 590,70 590,86" fill="#000000"/>
  <line x1="90" y1="67" x2="90" y2="89" stroke="#000000" stroke-width="1.8"/><line x1="165" y1="67" x2="165" y2="89" stroke="#000000" stroke-width="1.8"/><line x1="240" y1="67" x2="240" y2="89" stroke="#000000" stroke-width="1.8"/><line x1="315" y1="67" x2="315" y2="89" stroke="#000000" stroke-width="1.8"/><line x1="390" y1="67" x2="390" y2="89" stroke="#000000" stroke-width="1.8"/><line x1="465" y1="67" x2="465" y2="89" stroke="#000000" stroke-width="1.8"/><line x1="540" y1="67" x2="540" y2="89" stroke="#000000" stroke-width="1.8"/>
  <line x1="25" y1="28" x2="390" y2="28" stroke="#000000" stroke-width="3"/>
  <polygon points="25,28 43,19 43,37" fill="#000000"/>
  <circle cx="390" cy="28" r="9" fill="#000000"/>
  <text x="386" y="110" font-family="Cambria" font-size="12pt" fill="#000000">1</text>
</svg>
